<?xml version="1.0" standalone="no"?>
<!DOCTYPE svg PUBLIC "-//W3C//DTD SVG 20010904//EN"
 "http://www.w3.org/TR/2001/REC-SVG-20010904/DTD/svg10.dtd">
<svg version="1.0" xmlns="http://www.w3.org/2000/svg"
 width="75.000000pt" height="75.000000pt" viewBox="0 0 75.000000 75.000000"
 preserveAspectRatio="xMidYMid meet">
<metadata>
Created by potrace 1.11, written by Peter Selinger 2001-2013
</metadata>
<g transform="translate(0.000000,75.000000) scale(0.100000,-0.100000)"
fill="#000000" stroke="none">
<path d="M0 375 l0 -375 375 0 375 0 0 375 0 375 -375 0 -375 0 0 -375z m694
166 c3 -5 -5 -34 -19 -65 -30 -69 -31 -74 -4 -50 20 18 20 18 14 -11 -13 -59
-27 -83 -53 -94 -15 -6 -112 -25 -217 -41 -136 -22 -198 -37 -217 -51 -27 -19
-27 -19 -38 0 -28 54 12 68 260 97 219 24 235 28 244 49 4 12 0 12 -21 2 -21
-9 -27 -9 -31 1 -3 10 -8 9 -23 -4 -10 -9 -25 -14 -35 -10 -9 3 -23 1 -30 -5
-11 -9 -18 -9 -28 0 -10 9 -16 9 -21 1 -4 -6 -17 -10 -28 -9 -12 2 -32 -2 -44
-9 -14 -8 -24 -9 -28 -2 -4 7 -13 6 -26 -1 -11 -6 -28 -8 -36 -5 -9 4 -22 1
-29 -5 -7 -6 -19 -9 -26 -6 -7 2 -21 0 -31 -5 -12 -6 -23 -6 -30 0 -18 15 -39
-5 -66 -61 -23 -48 -61 -71 -83 -49 -16 16 8 67 43 95 27 21 89 137 89 167 0
12 3 11 17 -3 16 -16 16 -20 -5 -69 -24 -57 -23 -78 2 -30 19 37 62 72 87 72
28 0 23 -27 -6 -34 -13 -3 -29 -16 -36 -27 -16 -31 -3 -35 16 -5 23 34 39 34
30 -1 -5 -23 -4 -25 9 -14 9 8 16 19 16 25 0 7 13 25 30 41 23 22 32 26 43 17
11 -10 16 -4 27 28 9 27 19 40 32 40 22 0 22 -2 -1 -48 -27 -53 -34 -82 -22
-82 6 0 18 18 27 40 9 22 23 40 31 40 15 0 15 -11 -3 -55 -7 -17 -6 -18 8 -7
9 7 21 26 28 42 7 17 19 30 26 30 17 0 18 -14 3 -41 -6 -11 -9 -25 -6 -32 2
-7 12 5 22 26 17 37 58 67 72 54 3 -4 -3 -17 -15 -30 -26 -27 -30 -46 -6 -26
9 7 28 40 42 71 24 56 35 68 46 49z"/>
<path d="M363 408 c-19 -25 -24 -38 -15 -38 5 0 17 11 26 25 17 25 7 36 -11
13z"/>
<path d="M80 258 c-12 -22 -12 -22 6 -6 10 10 15 20 12 24 -4 3 -12 -5 -18
-18z"/>
</g>
</svg>
